<?xml version="1.0" encoding="UTF-8"?>
<svg xmlns="http://www.w3.org/2000/svg" xmlns:xlink="http://www.w3.org/1999/xlink" width="50px" height="50px" viewBox="0 0 40 40" version="1.1">
<g id="surface1">
<path style=" stroke:none;fill-rule:nonzero;fill:#F5CE85;fill-opacity:1;" d="M 5.980469 29.308594 L 8.570313 26.71875 L 13.617188 31.113281 L 10.714844 34.019531 L 2.453125 37.546875 Z M 5.980469 29.308594 "/>
<path style=" stroke:none;fill-rule:nonzero;fill:#967A44;fill-opacity:1;" d="M 8.59375 27.402344 L 12.886719 31.140625 L 10.429688 33.597656 L 3.402344 36.597656 L 6.402344 29.59375 L 8.59375 27.402344 M 8.546875 26.035156 L 5.558594 29.023438 L 1.5 38.496094 L 11 34.441406 L 14.351563 31.089844 Z M 8.546875 26.035156 "/>
<path style=" stroke:none;fill-rule:nonzero;fill:#36404D;fill-opacity:1;" d="M 3.804688 33.128906 L 1.503906 38.5 L 6.886719 36.199219 Z M 3.804688 33.128906 "/>
<path style=" stroke:none;fill-rule:nonzero;fill:#F78F8F;fill-opacity:1;" d="M 30.0625 5.214844 L 32.300781 2.976563 C 32.929688 2.347656 33.769531 2 34.660156 2 C 35.550781 2 36.390625 2.347656 37.019531 2.976563 C 38.320313 4.28125 38.320313 6.398438 37.019531 7.699219 L 34.78125 9.9375 Z M 30.0625 5.214844 "/>
<path style=" stroke:none;fill-rule:nonzero;fill:#C74343;fill-opacity:1;" d="M 34.660156 2.5 C 35.417969 2.5 36.132813 2.796875 36.667969 3.332031 C 37.773438 4.4375 37.773438 6.238281 36.667969 7.34375 L 34.78125 9.230469 L 30.769531 5.214844 L 32.652344 3.332031 C 33.1875 2.796875 33.902344 2.5 34.660156 2.5 M 34.660156 1.5 C 33.679688 1.5 32.695313 1.875 31.945313 2.625 L 29.355469 5.214844 L 34.78125 10.644531 L 37.375 8.050781 C 38.871094 6.554688 38.871094 4.121094 37.375 2.625 C 36.625 1.875 35.644531 1.5 34.660156 1.5 Z M 34.660156 1.5 "/>
<path style=" stroke:none;fill-rule:nonzero;fill:#FFEEA3;fill-opacity:1;" d="M 11.347656 33.386719 C 11.28125 33.234375 11.1875 33.078125 11.0625 32.933594 C 10.753906 32.570313 10.316406 32.351563 9.753906 32.273438 C 9.554688 31.007813 8.546875 30.46875 7.765625 30.308594 C 7.632813 29.445313 7.117188 28.96875 6.5625 28.726563 L 28.054688 7.222656 L 32.773438 11.945313 Z M 11.347656 33.386719 "/>
<path style=" stroke:none;fill-rule:nonzero;fill:#BA9B48;fill-opacity:1;" d="M 28.054688 7.929688 L 32.066406 11.945313 L 11.429688 32.59375 C 11.1875 32.316406 10.792969 32.003906 10.171875 31.847656 C 9.863281 30.769531 9.015625 30.160156 8.1875 29.902344 C 8.035156 29.355469 7.738281 28.933594 7.367188 28.632813 L 28.054688 7.929688 M 28.054688 6.515625 L 5.558594 29.023438 C 5.558594 29.023438 5.566406 29.023438 5.582031 29.023438 C 5.777344 29.023438 7.296875 29.078125 7.296875 30.753906 C 7.296875 30.753906 9.289063 30.816406 9.289063 32.742188 C 11.269531 32.742188 11 34.441406 11 34.441406 L 33.480469 11.945313 Z M 28.054688 6.515625 "/>
<path style=" stroke:none;fill-rule:nonzero;fill:#D9E7F5;fill-opacity:1;" d="M 27.5625 7.714844 L 31.507813 3.769531 L 36.226563 8.488281 L 32.285156 12.433594 Z M 27.5625 7.714844 "/>
<path style=" stroke:none;fill-rule:nonzero;fill:#788B9C;fill-opacity:1;" d="M 31.507813 4.476563 L 35.519531 8.492188 L 32.285156 11.726563 L 28.269531 7.714844 L 31.507813 4.476563 M 31.507813 3.0625 L 26.855469 7.714844 L 32.285156 13.140625 L 36.933594 8.492188 Z M 31.507813 3.0625 "/>
</g>
</svg>

