<?xml version="1.0" encoding="UTF-8"?>
<svg xmlns="http://www.w3.org/2000/svg" xmlns:xlink="http://www.w3.org/1999/xlink" width="50px" height="50px" viewBox="0 0 40 40" version="1.1">
<g id="surface1">
<path style=" stroke:none;fill-rule:nonzero;fill:#DCD5F2;fill-opacity:1;" d="M 7.792969 38.492188 C 6.101563 38.492188 4.511719 37.828125 3.320313 36.628906 C 0.878906 34.160156 0.898438 30.167969 3.363281 27.726563 L 18.433594 12.816406 L 27.292969 21.761719 L 12.222656 36.671875 C 11.035156 37.847656 9.464844 38.492188 7.792969 38.492188 Z M 8 28.5 C 6.078125 28.5 4.507813 30.0625 4.5 31.984375 C 4.492188 33.914063 6.054688 35.488281 7.980469 35.5 C 9.921875 35.5 11.492188 33.9375 11.5 32.015625 C 11.507813 30.085938 9.945313 28.511719 8.019531 28.5 Z M 8 28.5 "/>
<path style=" stroke:none;fill-rule:nonzero;fill:#8B75A1;fill-opacity:1;" d="M 18.433594 13.523438 L 26.585938 21.757813 L 11.871094 36.316406 C 10.777344 37.398438 9.328125 37.992188 7.792969 37.992188 C 6.234375 37.992188 4.773438 37.382813 3.675781 36.277344 C 1.429688 34.007813 1.445313 30.328125 3.71875 28.082031 L 18.433594 13.523438 M 7.996094 36 L 8 36 C 10.195313 36 11.988281 34.214844 12 32.019531 C 12.011719 29.8125 10.226563 28.011719 8 28 C 5.804688 28 4.011719 29.785156 4 31.980469 C 3.988281 34.1875 5.773438 35.988281 7.980469 36 L 7.996094 36 M 18.441406 12.109375 L 3.015625 27.371094 C 0.347656 30.011719 0.328125 34.3125 2.96875 36.980469 C 4.296875 38.320313 6.046875 38.992188 7.796875 38.992188 C 9.523438 38.992188 11.25 38.339844 12.574219 37.027344 L 28 21.765625 Z M 8 35 C 7.996094 35 7.988281 35 7.984375 35 C 6.328125 34.992188 4.992188 33.640625 5 31.984375 C 5.007813 30.332031 6.351563 29 8 29 C 8.003906 29 8.011719 29 8.015625 29 C 9.671875 29.007813 11.007813 30.359375 11 32.015625 C 10.992188 33.664063 9.648438 35 8 35 Z M 8 35 "/>
<path style=" stroke:none;fill-rule:nonzero;fill:#DCD5F2;fill-opacity:1;" d="M 29.285156 23.535156 C 26.128906 23.535156 22.886719 22.089844 20.386719 19.5625 C 15.882813 15.015625 15.195313 8.367188 18.855469 4.742188 C 20.808594 2.808594 24.214844 1.507813 27.328125 1.507813 C 28.609375 1.507813 29.78125 1.71875 30.816406 2.128906 L 23.429688 9.449219 L 25.246094 14.742188 L 30.523438 16.613281 L 37.90625 9.296875 C 39.449219 13.269531 37.804688 18.652344 35.191406 21.242188 C 33.675781 22.742188 31.632813 23.535156 29.285156 23.535156 Z M 29.285156 23.535156 "/>
<path style=" stroke:none;fill-rule:nonzero;fill:#8B75A1;fill-opacity:1;" d="M 27.328125 2.007813 C 28.246094 2.007813 29.105469 2.117188 29.890625 2.34375 L 23.300781 8.875 L 22.851563 9.316406 L 23.058594 9.910156 L 24.695313 14.675781 L 24.851563 15.132813 L 25.308594 15.292969 L 30.058594 16.980469 L 30.648438 17.191406 L 31.097656 16.75 L 37.6875 10.21875 C 38.710938 13.910156 37.179688 18.570313 34.835938 20.886719 C 33.414063 22.296875 31.496094 23.039063 29.28125 23.039063 C 26.261719 23.039063 23.144531 21.644531 20.738281 19.214844 C 18.625 17.078125 17.3125 14.410156 17.046875 11.707031 C 16.789063 9.078125 17.554688 6.734375 19.203125 5.101563 C 21.074219 3.25 24.335938 2.007813 27.328125 2.007813 M 27.328125 1.007813 C 23.996094 1.007813 20.511719 2.398438 18.503906 4.386719 C 14.640625 8.210938 15.324219 15.164063 20.03125 19.914063 C 22.714844 22.628906 26.132813 24.035156 29.285156 24.035156 C 31.660156 24.035156 33.882813 23.238281 35.542969 21.597656 C 38.476563 18.691406 40.15625 12.605469 38.074219 8.425781 L 30.394531 16.035156 L 25.644531 14.347656 L 24.003906 9.582031 L 31.683594 1.972656 C 30.371094 1.304688 28.863281 1.007813 27.328125 1.007813 Z M 27.328125 1.007813 "/>
</g>
</svg>

