<?xml version="1.0" encoding="UTF-8"?>
<svg xmlns="http://www.w3.org/2000/svg" xmlns:xlink="http://www.w3.org/1999/xlink" width="50px" height="50px" viewBox="0 0 40 40" version="1.1">
<g id="surface1">
<path style=" stroke:none;fill-rule:nonzero;fill:#F78F8F;fill-opacity:1;" d="M 21 24.148438 L 8.855469 36.292969 L 4.707031 32.144531 L 16.851563 20 L 4.707031 7.855469 L 8.855469 3.707031 L 21 15.851563 L 33.144531 3.707031 L 37.292969 7.855469 L 25.148438 20 L 37.292969 32.144531 L 33.144531 36.292969 Z M 21 24.148438 "/>
<path style=" stroke:none;fill-rule:nonzero;fill:#C74343;fill-opacity:1;" d="M 33.144531 4.414063 L 36.585938 7.855469 L 24.441406 20 L 36.585938 32.144531 L 33.144531 35.585938 L 21 23.441406 L 8.855469 35.585938 L 5.414063 32.144531 L 17.558594 20 L 5.414063 7.855469 L 8.855469 4.414063 L 21 16.558594 L 33.144531 4.414063 M 33.144531 3 L 21 15.144531 L 8.855469 3 L 4 7.855469 L 16.144531 20 L 4 32.144531 L 8.855469 37 L 21 24.855469 L 33.144531 37 L 38 32.144531 L 25.855469 20 L 38 7.855469 Z M 33.144531 3 "/>
</g>
</svg>

