<?xml version="1.0" encoding="UTF-8"?>
<svg xmlns="http://www.w3.org/2000/svg" xmlns:xlink="http://www.w3.org/1999/xlink" width="50px" height="50px" viewBox="0 0 40 40" version="1.1">
<g id="surface1">
<path style=" stroke:none;fill-rule:nonzero;fill:#DBB065;fill-opacity:1;" d="M 1.5 35.5 L 1.5 4.5 L 11.792969 4.5 L 14.792969 7.5 L 35.5 7.5 L 35.5 35.5 Z M 1.5 35.5 "/>
<path style=" stroke:none;fill-rule:nonzero;fill:#967A44;fill-opacity:1;" d="M 11.585938 5 L 14.585938 8 L 35 8 L 35 35 L 2 35 L 2 5 L 11.585938 5 M 12 4 L 1 4 L 1 36 L 36 36 L 36 7 L 15 7 Z M 12 4 "/>
<path style=" stroke:none;fill-rule:nonzero;fill:#F5CE85;fill-opacity:1;" d="M 1.597656 35.5 L 5.417969 14.5 L 16.152344 14.5 L 19.152344 12.5 L 39.410156 12.5 L 35.578125 35.5 Z M 1.597656 35.5 "/>
<path style=" stroke:none;fill-rule:nonzero;fill:#967A44;fill-opacity:1;" d="M 38.820313 13 L 35.152344 35 L 2.199219 35 L 5.835938 15 L 16.304688 15 L 16.554688 14.832031 L 19.304688 13 L 38.820313 13 M 40 12 L 19 12 L 16 14 L 5 14 L 1 36 L 36 36 Z M 40 12 "/>
</g>
</svg>

