<?xml version="1.0" encoding="UTF-8"?>
<svg xmlns="http://www.w3.org/2000/svg" xmlns:xlink="http://www.w3.org/1999/xlink" width="50px" height="50px" viewBox="0 0 40 40" version="1.1">
<g id="surface1">
<path style=" stroke:none;fill-rule:nonzero;fill:#F5CE85;fill-opacity:1;" d="M 1.566406 35.792969 L 2.972656 31.230469 L 14.796875 19.402344 L 14.207031 18.8125 C 13.785156 18.394531 13.558594 17.839844 13.558594 17.246094 C 13.558594 16.65625 13.785156 16.101563 14.207031 15.683594 L 15.167969 14.71875 L 15.140625 14.480469 C 15.09375 14.039063 15.070313 13.621094 15.070313 13.214844 C 15.070313 6.757813 20.324219 1.5 26.785156 1.5 L 27.117188 1.507813 C 33.222656 1.675781 38.324219 6.777344 38.496094 12.882813 C 38.585938 16.078125 37.40625 19.09375 35.183594 21.382813 C 32.957031 23.671875 29.976563 24.929688 26.785156 24.929688 C 26.378906 24.929688 25.964844 24.90625 25.519531 24.859375 L 25.28125 24.832031 L 24.320313 25.792969 C 23.898438 26.210938 23.34375 26.441406 22.753906 26.441406 C 22.160156 26.441406 21.605469 26.210938 21.1875 25.792969 L 20.597656 25.199219 L 18.296875 27.5 L 14.5 27.5 L 14.5 31.296875 L 13.296875 32.5 L 9.5 32.5 L 9.5 36.296875 L 8.761719 37.035156 L 4.210938 38.433594 Z M 26.972656 5.5 C 24.960938 5.5 23.070313 6.28125 21.648438 7.707031 L 21.292969 8.058594 L 31.941406 18.707031 L 32.296875 18.355469 C 33.71875 16.933594 34.5 15.039063 34.5 13.03125 C 34.5 11.019531 33.71875 9.128906 32.296875 7.707031 C 30.871094 6.28125 28.980469 5.5 26.972656 5.5 Z M 26.972656 5.5 "/>
<path style=" stroke:none;fill-rule:nonzero;fill:#967A44;fill-opacity:1;" d="M 26.785156 2 C 26.890625 2 26.996094 2 27.105469 2.003906 C 32.949219 2.164063 37.835938 7.050781 37.996094 12.894531 C 38.078125 15.953125 36.953125 18.84375 34.824219 21.03125 C 32.695313 23.222656 29.839844 24.429688 26.785156 24.429688 C 26.394531 24.429688 26 24.40625 25.570313 24.359375 L 25.097656 24.308594 L 24.757813 24.648438 L 23.964844 25.4375 C 23.640625 25.761719 23.210938 25.941406 22.753906 25.941406 C 22.296875 25.941406 21.867188 25.761719 21.542969 25.4375 L 20.597656 24.492188 L 18.089844 27 L 14 27 L 14 31.089844 L 13.089844 32 L 9 32 L 9 36.089844 L 8.496094 36.59375 L 4.347656 37.867188 L 2.132813 35.652344 L 3.414063 31.496094 L 15.503906 19.40625 L 14.558594 18.460938 C 14.234375 18.136719 14.058594 17.707031 14.058594 17.246094 C 14.058594 16.789063 14.234375 16.359375 14.558594 16.035156 L 15.351563 15.242188 L 15.691406 14.90625 L 15.640625 14.429688 C 15.59375 14.003906 15.570313 13.605469 15.570313 13.214844 C 15.570313 7.03125 20.601563 2 26.785156 2 M 31.941406 19.414063 L 32.648438 18.707031 C 34.164063 17.191406 35 15.175781 35 13.027344 C 35 10.882813 34.164063 8.867188 32.648438 7.351563 C 31.132813 5.835938 29.113281 5 26.972656 5 C 24.828125 5 22.808594 5.835938 21.292969 7.351563 L 20.585938 8.058594 L 31.941406 19.414063 M 26.785156 1 C 20.039063 1 14.570313 6.46875 14.570313 13.214844 C 14.570313 13.660156 14.597656 14.101563 14.644531 14.535156 L 13.851563 15.328125 C 12.792969 16.386719 12.792969 18.105469 13.851563 19.164063 L 14.089844 19.402344 L 2.53125 30.964844 L 1 35.933594 L 4.066406 39 L 9.027344 37.476563 L 10 36.503906 L 10 33 L 13.503906 33 L 15 31.503906 L 15 28 L 18.503906 28 L 20.59375 25.910156 L 20.832031 26.148438 C 21.363281 26.675781 22.058594 26.941406 22.753906 26.941406 C 23.445313 26.941406 24.140625 26.675781 24.671875 26.148438 L 25.464844 25.355469 C 25.898438 25.402344 26.335938 25.429688 26.785156 25.429688 C 33.644531 25.429688 39.183594 19.773438 38.992188 12.867188 C 38.816406 6.492188 33.503906 1.179688 27.128906 1.003906 C 27.015625 1.003906 26.898438 1 26.785156 1 Z M 31.941406 18 L 22 8.058594 C 23.371094 6.6875 25.171875 6 26.972656 6 C 28.769531 6 30.570313 6.6875 31.941406 8.058594 C 34.6875 10.804688 34.6875 15.253906 31.941406 18 Z M 31.941406 18 "/>
<path style=" stroke:none;fill-rule:nonzero;fill:#DBB065;fill-opacity:1;" d="M 5.261719 32.671875 L 16.417969 21.519531 L 17.125 22.226563 L 5.96875 33.378906 Z M 5.261719 32.671875 "/>
<path style=" stroke:none;fill-rule:nonzero;fill:#967A44;fill-opacity:1;" d="M 14.597656 19.921875 L 15.304688 19.214844 L 20.628906 24.535156 L 19.921875 25.242188 Z M 14.597656 19.921875 "/>
</g>
</svg>

