<?xml version="1.0" encoding="UTF-8"?>
<svg xmlns="http://www.w3.org/2000/svg" xmlns:xlink="http://www.w3.org/1999/xlink" width="50px" height="50px" viewBox="0 0 40 40" version="1.1">
<g id="surface1">
<path style=" stroke:none;fill-rule:nonzero;fill:#E1EBF2;fill-opacity:1;" d="M 22.160156 38.5 C 23.574219 37.503906 24.5 35.859375 24.5 34 L 24.5 5.5 L 37.5 5.5 L 37.5 34 C 37.5 36.480469 35.480469 38.5 33 38.5 Z M 22.160156 38.5 "/>
<path style=" stroke:none;fill-rule:nonzero;fill:#788B9C;fill-opacity:1;" d="M 37 6 L 37 34 C 37 36.207031 35.207031 38 33 38 L 23.46875 38 C 24.421875 36.9375 25 35.535156 25 34 L 25 6 L 37 6 M 38 5 L 24 5 L 24 34 C 24 36.761719 21.761719 39 19 39 L 33 39 C 35.761719 39 38 36.761719 38 34 Z M 38 5 "/>
<path style=" stroke:none;fill-rule:nonzero;fill:#FFFFFF;fill-opacity:1;" d="M 7 38.5 C 4.519531 38.5 2.5 36.480469 2.5 34 L 2.5 1.5 L 28.5 1.5 L 28.5 34 C 28.5 36.3125 30.253906 38.222656 32.5 38.472656 L 32.5 38.5 Z M 7 38.5 "/>
<path style=" stroke:none;fill-rule:nonzero;fill:#788B9C;fill-opacity:1;" d="M 28 2 L 28 34 C 28 35.632813 28.789063 37.085938 30.003906 38 L 7 38 C 4.792969 38 3 36.207031 3 34 L 3 2 L 28 2 M 29 1 L 2 1 L 2 34 C 2 36.761719 4.238281 39 7 39 L 33 39 L 33 38 C 30.789063 38 29 36.210938 29 34 Z M 29 1 "/>
<path style=" stroke:none;fill-rule:nonzero;fill:#788B9C;fill-opacity:1;" d="M 7 6 L 24 6 L 24 9 L 7 9 Z M 7 6 "/>
<path style=" stroke:none;fill-rule:nonzero;fill:#788B9C;fill-opacity:1;" d="M 7 12 L 14 12 L 14 13 L 7 13 Z M 7 12 "/>
<path style=" stroke:none;fill-rule:nonzero;fill:#788B9C;fill-opacity:1;" d="M 7 15 L 14 15 L 14 16 L 7 16 Z M 7 15 "/>
<path style=" stroke:none;fill-rule:nonzero;fill:#788B9C;fill-opacity:1;" d="M 7 18 L 14 18 L 14 19 L 7 19 Z M 7 18 "/>
<path style=" stroke:none;fill-rule:nonzero;fill:#788B9C;fill-opacity:1;" d="M 7 21 L 14 21 L 14 22 L 7 22 Z M 7 21 "/>
<path style=" stroke:none;fill-rule:nonzero;fill:#788B9C;fill-opacity:1;" d="M 7 24 L 14 24 L 14 25 L 7 25 Z M 7 24 "/>
<path style=" stroke:none;fill-rule:nonzero;fill:#788B9C;fill-opacity:1;" d="M 7 27 L 14 27 L 14 28 L 7 28 Z M 7 27 "/>
<path style=" stroke:none;fill-rule:nonzero;fill:#788B9C;fill-opacity:1;" d="M 7 30 L 14 30 L 14 31 L 7 31 Z M 7 30 "/>
<path style=" stroke:none;fill-rule:nonzero;fill:#788B9C;fill-opacity:1;" d="M 7 33 L 14 33 L 14 34 L 7 34 Z M 7 33 "/>
<path style=" stroke:none;fill-rule:nonzero;fill:#788B9C;fill-opacity:1;" d="M 29 11 L 34 11 L 34 12 L 29 12 Z M 29 11 "/>
<path style=" stroke:none;fill-rule:nonzero;fill:#788B9C;fill-opacity:1;" d="M 29 14 L 34 14 L 34 15 L 29 15 Z M 29 14 "/>
<path style=" stroke:none;fill-rule:nonzero;fill:#788B9C;fill-opacity:1;" d="M 29 17 L 34 17 L 34 18 L 29 18 Z M 29 17 "/>
<path style=" stroke:none;fill-rule:nonzero;fill:#788B9C;fill-opacity:1;" d="M 29 20 L 34 20 L 34 21 L 29 21 Z M 29 20 "/>
<path style=" stroke:none;fill-rule:nonzero;fill:#788B9C;fill-opacity:1;" d="M 29 23 L 34 23 L 34 24 L 29 24 Z M 29 23 "/>
<path style=" stroke:none;fill-rule:nonzero;fill:#788B9C;fill-opacity:1;" d="M 29 26 L 34 26 L 34 27 L 29 27 Z M 29 26 "/>
<path style=" stroke:none;fill-rule:nonzero;fill:#788B9C;fill-opacity:1;" d="M 29 29 L 34 29 L 34 30 L 29 30 Z M 29 29 "/>
<path style=" stroke:none;fill-rule:nonzero;fill:#788B9C;fill-opacity:1;" d="M 29 32 L 34 32 L 34 33 L 29 33 Z M 29 32 "/>
<path style=" stroke:none;fill-rule:nonzero;fill:#788B9C;fill-opacity:1;" d="M 17 12 L 24 12 L 24 13 L 17 13 Z M 17 12 "/>
<path style=" stroke:none;fill-rule:nonzero;fill:#788B9C;fill-opacity:1;" d="M 17 15 L 24 15 L 24 16 L 17 16 Z M 17 15 "/>
<path style=" stroke:none;fill-rule:nonzero;fill:#788B9C;fill-opacity:1;" d="M 17 18 L 24 18 L 24 19 L 17 19 Z M 17 18 "/>
<path style=" stroke:none;fill-rule:nonzero;fill:#788B9C;fill-opacity:1;" d="M 17 21 L 24 21 L 24 22 L 17 22 Z M 17 21 "/>
<path style=" stroke:none;fill-rule:nonzero;fill:#788B9C;fill-opacity:1;" d="M 17 24 L 24 24 L 24 25 L 17 25 Z M 17 24 "/>
<path style=" stroke:none;fill-rule:nonzero;fill:#788B9C;fill-opacity:1;" d="M 17 27 L 24 27 L 24 28 L 17 28 Z M 17 27 "/>
<path style=" stroke:none;fill-rule:nonzero;fill:#788B9C;fill-opacity:1;" d="M 17 30 L 24 30 L 24 31 L 17 31 Z M 17 30 "/>
<path style=" stroke:none;fill-rule:nonzero;fill:#788B9C;fill-opacity:1;" d="M 17 33 L 24 33 L 24 34 L 17 34 Z M 17 33 "/>
</g>
</svg>

